<?xml version="1.0" standalone="no"?>
<!DOCTYPE svg PUBLIC "-//W3C//DTD SVG 20010904//EN"
 "http://www.w3.org/TR/2001/REC-SVG-20010904/DTD/svg10.dtd">
<svg version="1.0" xmlns="http://www.w3.org/2000/svg"
 width="210.000000pt" height="210.000000pt" viewBox="0 0 210.000000 210.000000"
 preserveAspectRatio="xMidYMid meet">
<metadata>
Created by potrace 1.16, written by Peter Selinger 2001-2019
</metadata>
<g transform="translate(0.000000,210.000000) scale(0.100000,-0.100000)"
fill="#E25E54" stroke="none">
<path d="M850 1984 c-100 -22 -157 -43 -254 -92 -247 -126 -418 -341 -492
-617 -28 -105 -26 -351 4 -458 94 -342 357 -599 707 -693 107 -29 380 -26 490
4 345 95 604 359 691 702 28 110 26 344 -4 455 -99 360 -392 630 -760 701 -93
18 -296 17 -382 -2z m461 -100 c46 -14 116 -43 155 -64 70 -37 174 -109 174
-120 0 -3 -49 -55 -110 -115 l-110 -110 -27 18 c-62 40 -143 76 -200 91 -113
30 -258 18 -367 -28 l-40 -17 30 -29 29 -29 59 19 c70 24 196 26 271 6 71 -18
143 -57 195 -104 l45 -41 141 141 c78 77 146 138 152 134 23 -14 107 -136 143
-208 57 -114 80 -204 86 -343 6 -138 -8 -226 -57 -352 -31 -83 -110 -211 -154
-253 l-27 -24 -142 142 -143 143 -24 -27 c-113 -120 -324 -168 -492 -111 l-68
23 -25 -26 c-14 -14 -25 -29 -25 -32 0 -7 91 -43 145 -57 58 -16 202 -13 268
4 54 14 138 53 200 92 l27 18 110 -110 c61 -60 110 -113 110 -117 0 -16 -98
-80 -195 -128 -131 -65 -241 -91 -385 -91 -60 0 -136 5 -169 11 -148 27 -315
106 -426 202 -6 5 120 138 315 333 l325 325 -324 324 c-192 192 -321 328 -317
335 27 43 245 157 356 186 145 39 348 34 491 -11z m-799 -351 c60 -59 108
-111 108 -115 0 -4 -18 -32 -39 -63 -65 -93 -86 -169 -86 -310 1 -99 5 -129
23 -175 20 -50 62 -126 95 -172 10 -16 -2 -32 -101 -130 l-113 -113 -39 45
c-84 98 -158 253 -186 389 -12 63 -15 115 -11 205 6 145 41 268 111 386 43 72
111 160 124 160 4 0 55 -48 114 -107z m333 -333 l150 -150 -150 -150 c-82 -82
-154 -150 -160 -150 -14 0 -49 53 -82 125 -37 82 -44 220 -15 312 22 69 77
163 96 163 6 0 79 -67 161 -150z"/>
</g>
</svg>
